<?xml version="1.0" standalone="no"?>
<!DOCTYPE svg PUBLIC "-//W3C//DTD SVG 20010904//EN"
 "http://www.w3.org/TR/2001/REC-SVG-20010904/DTD/svg10.dtd">
<svg version="1.0" xmlns="http://www.w3.org/2000/svg"
 width="920.000000pt" height="920.000000pt" viewBox="0 0 920.000000 920.000000"
 preserveAspectRatio="xMidYMid meet">

<g transform="translate(0.000000,920.000000) scale(0.100000,-0.100000)"
fill="#000000" stroke="none">
<path d="M1 7793 c1 -797 5 -1380 10 -1343 49 383 260 721 583 934 63 42 286
162 511 276 220 112 405 206 410 210 6 4 168 87 360 185 193 98 505 257 695
355 190 97 451 231 580 297 129 66 373 191 542 277 168 86 341 170 385 186
l78 29 -2077 1 -2078 0 1 -1407z"/>
<path d="M4969 9169 c345 -119 647 -423 776 -779 113 -316 95 -696 -50 -995
-86 -178 -225 -353 -365 -459 -30 -23 -210 -130 -400 -236 -414 -233 -503
-283 -995 -562 -209 -118 -490 -277 -625 -353 -135 -76 -310 -175 -390 -220
-80 -45 -264 -150 -410 -232 -146 -83 -296 -167 -333 -188 l-69 -37 -16 23
c-9 13 -34 46 -57 74 -39 48 -201 258 -292 377 -24 31 -43 60 -43 65 1 4 26
24 57 43 124 78 244 248 279 396 21 87 21 237 0 326 -53 229 -217 416 -430
494 -83 30 -215 47 -296 39 -265 -27 -511 -224 -594 -475 -38 -115 -41 -265
-7 -385 41 -145 87 -215 441 -665 25 -32 74 -94 110 -140 36 -45 76 -97 90
-115 32 -42 524 -669 765 -975 66 -84 140 -178 165 -210 153 -196 347 -444
561 -715 134 -171 256 -326 271 -345 16 -19 99 -125 185 -235 87 -111 196
-250 243 -310 47 -59 103 -131 125 -158 134 -166 219 -316 274 -487 34 -106
60 -229 62 -287 2 -93 0 -93 139 -5 167 106 599 379 678 428 121 76 145 91
460 289 174 110 345 218 379 240 35 22 91 58 125 79 35 22 86 54 113 71 28 18
187 119 355 225 408 257 433 274 505 352 184 199 226 468 109 702 -30 60 -125
191 -181 251 -29 31 -76 95 -72 98 2 2 54 13 114 25 170 34 328 88 478 163 43
21 81 39 85 39 28 0 185 -261 233 -385 69 -178 82 -251 83 -465 0 -150 -4
-212 -17 -269 -59 -255 -180 -474 -362 -656 -103 -103 -150 -137 -472 -339
-87 -55 -216 -136 -288 -181 -71 -45 -191 -120 -265 -167 -120 -76 -346 -219
-545 -345 -38 -24 -135 -85 -215 -135 -201 -126 -405 -255 -465 -294 -27 -17
-198 -125 -380 -239 -181 -115 -397 -251 -480 -303 -82 -53 -194 -123 -247
-156 -54 -34 -204 -128 -334 -210 -227 -142 -357 -212 -447 -241 -35 -11 479
-13 3036 -14 l3077 -1 0 4208 -1 4207 -53 -210 c-103 -402 -257 -773 -424
-1023 -32 -47 -46 -58 -146 -107 -155 -76 -458 -175 -535 -175 -12 0 -21 -4
-21 -8 0 -18 199 -45 363 -50 92 -2 167 -6 167 -9 0 -2 -35 -75 -79 -161 -84
-168 -192 -361 -300 -534 l-66 -107 -87 -41 c-191 -88 -464 -162 -660 -176
-49 -4 -88 -10 -88 -14 0 -11 202 -76 280 -91 36 -7 122 -13 192 -13 l127 -1
-27 -35 c-279 -371 -592 -647 -897 -794 -207 -100 -317 -127 -533 -131 l-164
-4 -69 -102 c-111 -163 -331 -535 -489 -825 l-33 -62 -111 -32 c-61 -18 -172
-52 -246 -76 -74 -24 -136 -41 -139 -39 -2 3 11 33 29 67 122 232 132 251 238
438 121 215 246 426 386 650 247 397 646 944 896 1230 30 35 45 58 33 52 -41
-22 -314 -231 -416 -319 -183 -157 -299 -265 -488 -451 l-156 -154 -23 54
c-35 82 -59 154 -82 253 -18 74 -22 120 -22 265 0 154 3 189 26 287 75 319
258 628 554 935 52 54 84 80 84 70 0 -65 25 -210 46 -277 25 -77 111 -255 123
-255 3 0 7 64 7 143 3 216 45 432 124 635 l30 77 132 104 c214 171 502 362
674 449 l42 21 -10 -42 c-16 -68 -3 -281 22 -367 12 -41 25 -79 30 -83 4 -5
13 20 19 55 18 93 38 160 87 289 56 148 114 255 161 297 47 41 315 177 448
227 317 119 623 181 925 187 l115 3 3 383 2 382 -2157 -1 -2158 -1 84 -29z
m-95 -3736 c11 -14 46 -58 76 -98 30 -40 92 -120 138 -178 45 -58 82 -110 82
-114 0 -4 -22 -20 -48 -34 -38 -21 -183 -105 -370 -216 -66 -39 -142 -84 -257
-151 -66 -38 -226 -131 -355 -207 -129 -76 -260 -153 -290 -170 -30 -18 -116
-68 -190 -112 -418 -246 -521 -304 -530 -301 -5 2 -55 66 -112 143 -164 222
-199 273 -191 278 4 3 166 97 358 209 193 113 418 244 500 293 83 49 202 118
265 155 63 37 232 136 375 220 143 84 314 184 380 222 66 38 124 73 129 78 14
14 16 13 40 -17z m-230 -1641 c-217 -426 -218 -429 -263 -453 -26 -14 -171
-99 -324 -188 -153 -90 -282 -160 -286 -155 -25 29 -303 415 -300 418 2 1 74
43 159 93 172 100 769 450 1040 609 96 57 179 103 183 104 5 0 -89 -193 -209
-428z"/>
<path d="M4395 8560 c-60 -12 -124 -40 -295 -128 -225 -115 -513 -263 -860
-440 -168 -86 -372 -191 -455 -233 -82 -43 -268 -138 -412 -211 -145 -73 -263
-135 -263 -138 0 -3 25 -22 55 -43 87 -60 220 -192 294 -291 69 -92 154 -244
192 -346 37 -98 69 -261 76 -383 5 -89 9 -117 19 -113 14 5 424 236 822 463
277 157 290 165 377 213 33 18 65 36 70 40 9 7 151 87 450 255 445 250 476
270 546 359 89 111 129 229 129 377 0 148 -36 262 -119 383 -74 107 -237 212
-365 235 -68 12 -202 13 -261 1z"/>
<path d="M1 3093 l-1 -3093 1123 0 1122 1 -70 24 c-182 64 -357 176 -505 325
-119 119 -186 211 -258 356 -96 192 -135 364 -136 599 -1 282 77 543 227 765
89 132 264 308 365 366 32 18 32 18 46 -1 8 -11 100 -130 205 -265 105 -135
191 -247 191 -250 -1 -3 -26 -21 -56 -40 -133 -84 -252 -253 -288 -410 -59
-251 49 -554 253 -708 137 -103 237 -136 411 -137 140 0 207 14 314 66 173 85
313 257 363 449 25 98 23 255 -5 355 -34 117 -71 176 -278 441 -259 330 -297
379 -360 459 -108 138 -191 245 -353 451 -238 302 -362 461 -391 499 -24 32
-200 256 -405 516 -55 70 -161 205 -235 300 -74 95 -198 252 -275 350 -77 97
-176 223 -220 280 -81 103 -183 232 -379 479 -122 154 -173 229 -238 350 -77
143 -139 340 -158 500 -4 36 -8 -1327 -9 -3027z"/>
</g>
</svg>
