<?xml version="1.0" standalone="no"?>
<!DOCTYPE svg PUBLIC "-//W3C//DTD SVG 20010904//EN"
 "http://www.w3.org/TR/2001/REC-SVG-20010904/DTD/svg10.dtd">
<svg version="1.0" xmlns="http://www.w3.org/2000/svg"
 width="920.000000pt" height="920.000000pt" viewBox="0 0 920.000000 920.000000"
 preserveAspectRatio="xMidYMid meet">

<g transform="translate(0.000000,920.000000) scale(0.100000,-0.100000)"
fill="#000000" stroke="none">
<path d="M4079 9171 c-69 -26 -321 -148 -454 -221 -27 -15 -212 -109 -410
-210 -198 -101 -493 -251 -655 -335 -162 -84 -461 -237 -665 -340 -203 -103
-374 -191 -380 -195 -5 -4 -181 -94 -390 -200 -447 -226 -465 -237 -571 -311
-578 -410 -721 -1188 -336 -1829 41 -67 92 -135 312 -416 286 -363 434 -552
496 -629 39 -49 149 -189 243 -310 220 -280 360 -459 436 -556 33 -41 116
-147 185 -235 69 -87 154 -197 190 -244 37 -47 109 -139 160 -205 144 -182
221 -281 479 -610 65 -82 201 -257 304 -388 203 -260 249 -332 280 -440 29
-105 28 -266 -2 -372 -66 -234 -240 -409 -477 -481 -92 -29 -297 -26 -388 4
-93 31 -149 61 -221 116 -83 65 -139 136 -190 241 -129 265 -88 566 105 768
37 40 93 88 124 107 30 19 55 37 56 40 0 3 -86 115 -191 250 -105 135 -197
254 -205 265 -14 19 -14 19 -46 1 -64 -37 -198 -158 -266 -239 -223 -265 -327
-549 -326 -892 1 -238 40 -408 139 -605 73 -144 141 -237 259 -356 145 -144
330 -261 514 -323 59 -20 81 -21 455 -21 320 0 401 3 442 15 84 26 242 109
415 219 91 57 201 127 245 155 44 28 118 74 165 104 47 29 294 185 550 346
256 161 481 303 500 316 61 39 358 227 545 344 99 62 248 156 330 208 83 52
184 117 225 143 41 25 199 125 350 220 151 95 354 223 450 283 229 144 268
173 375 281 140 142 249 320 313 511 48 146 57 213 56 410 0 197 -12 267 -73
435 -48 130 -213 410 -243 410 -4 0 -43 -18 -87 -40 -154 -78 -397 -157 -540
-176 -28 -4 -51 -10 -51 -13 0 -4 30 -43 66 -86 113 -136 153 -191 189 -262
115 -228 72 -504 -110 -701 -69 -74 -105 -100 -410 -292 -115 -73 -239 -152
-275 -175 -36 -23 -85 -54 -110 -69 -25 -15 -115 -71 -200 -126 -85 -54 -191
-121 -235 -149 -44 -27 -208 -131 -365 -230 -157 -99 -370 -233 -475 -299
-104 -66 -298 -187 -430 -270 -131 -83 -241 -150 -242 -148 -2 1 -8 41 -13 87
-20 160 -62 311 -124 442 -36 75 -122 215 -155 254 -11 12 -51 62 -89 110
-175 224 -264 338 -367 468 -61 77 -119 152 -130 167 -20 27 -345 440 -510
648 -50 63 -149 189 -220 280 -71 91 -170 217 -220 280 -50 63 -112 142 -137
175 -54 70 -257 328 -478 609 -85 108 -175 223 -200 255 -25 32 -99 127 -165
210 -418 531 -453 584 -496 736 -34 119 -31 270 7 384 100 303 422 513 727
473 258 -34 450 -174 552 -406 54 -123 73 -301 46 -431 -35 -164 -167 -351
-303 -428 -21 -12 -38 -26 -38 -30 0 -5 19 -34 43 -65 91 -119 253 -329 292
-377 23 -28 48 -61 57 -74 l17 -24 43 25 c24 14 70 40 103 58 33 18 161 90
285 160 124 70 367 208 540 305 337 190 801 452 1150 650 245 139 710 402 910
513 158 89 219 134 317 234 466 477 485 1250 43 1753 -145 164 -349 304 -542
369 l-76 26 -364 0 -363 -1 -76 -28z m583 -612 c129 -26 286 -130 359 -236 84
-121 119 -234 119 -384 0 -148 -43 -269 -133 -379 -74 -89 -111 -113 -577
-375 -244 -137 -601 -339 -678 -384 -208 -121 -1008 -571 -1014 -571 -3 0 -8
53 -11 118 -21 389 -223 764 -535 997 -45 33 -81 62 -81 65 -1 3 104 58 232
123 127 65 318 162 422 216 105 53 334 171 510 260 176 90 392 201 480 246
629 324 597 311 767 314 48 0 111 -4 140 -10z"/>
<path d="M8990 8429 c-279 -16 -551 -76 -830 -182 -139 -53 -401 -184 -451
-226 -70 -58 -174 -293 -234 -526 -37 -144 -35 -144 -72 -13 -13 48 -18 101
-18 221 0 86 -3 157 -6 157 -3 0 -59 -31 -125 -69 -195 -112 -361 -226 -578
-397 l-126 -99 -30 -77 c-80 -207 -120 -413 -123 -630 -1 -82 -5 -148 -8 -148
-13 0 -99 181 -123 259 -15 47 -32 130 -38 186 l-11 101 -77 -80 c-551 -573
-720 -1167 -489 -1722 l31 -75 182 178 c255 251 527 488 754 656 141 105 156
111 92 37 -399 -458 -861 -1135 -1282 -1879 -121 -213 -272 -501 -266 -506 2
-2 64 15 138 39 74 24 185 58 245 76 l111 32 104 186 c103 186 291 509 317
547 7 11 49 73 92 138 l78 118 164 3 c137 3 180 8 259 29 226 60 428 167 650
344 153 122 389 372 520 550 l31 42 -88 -6 c-115 -7 -263 16 -403 63 -61 20
-110 40 -110 44 0 4 37 10 83 13 190 13 474 89 657 174 l95 44 82 132 c45 73
109 181 143 241 58 106 220 420 220 429 0 3 -75 7 -167 9 -164 5 -363 32 -363
50 0 4 9 8 21 8 77 0 380 99 535 175 119 59 123 63 213 213 91 153 235 494
304 722 23 76 107 405 107 419 0 8 -68 8 -210 0z"/>
<path d="M4719 5381 c-73 -43 -235 -137 -359 -210 -124 -73 -265 -157 -315
-186 -119 -69 -357 -208 -530 -310 -77 -45 -205 -121 -285 -167 -80 -47 -205
-120 -277 -163 l-133 -78 47 -66 c112 -157 255 -346 264 -349 8 -3 85 40 379
213 353 208 863 507 935 548 39 22 196 114 350 205 154 91 301 177 327 191 26
14 48 29 48 33 0 4 -34 51 -76 105 -41 54 -99 130 -129 168 -29 39 -66 86 -82
106 l-29 37 -135 -77z"/>
<path d="M4435 3978 c-411 -241 -503 -295 -800 -468 -88 -51 -162 -94 -164
-96 -3 -2 273 -386 300 -418 5 -5 78 32 166 84 310 182 359 211 423 246 l65
37 140 275 c77 151 169 332 205 401 81 158 91 181 82 181 -4 -1 -191 -109
-417 -242z"/>
</g>
</svg>
